<mxfile host="Electron" agent="Mozilla/5.0 (Windows NT 10.0; Win64; x64) AppleWebKit/537.36 (KHTML, like Gecko) draw.io/27.0.9 Chrome/134.0.6998.205 Electron/35.4.0 Safari/537.36" version="27.0.9">
  <diagram id="C5RBs43oDa-KdzZeNtuy" name="Page-1">
    <mxGraphModel dx="1426" dy="841" grid="1" gridSize="10" guides="1" tooltips="1" connect="1" arrows="1" fold="1" page="1" pageScale="1" pageWidth="827" pageHeight="1169" math="0" shadow="0">
      <root>
        <mxCell id="WIyWlLk6GJQsqaUBKTNV-0" />
        <mxCell id="WIyWlLk6GJQsqaUBKTNV-1" parent="WIyWlLk6GJQsqaUBKTNV-0" />
        <mxCell id="U1xN9qSYTa0BHSk3Pk5W-1" value="struct socket" style="swimlane;fontStyle=0;childLayout=stackLayout;horizontal=1;startSize=30;horizontalStack=0;resizeParent=1;resizeParentMax=0;resizeLast=0;collapsible=1;marginBottom=0;whiteSpace=wrap;html=1;" parent="WIyWlLk6GJQsqaUBKTNV-1" vertex="1">
          <mxGeometry x="80" y="40" width="240" height="240" as="geometry">
            <mxRectangle x="80" y="40" width="110" height="30" as="alternateBounds" />
          </mxGeometry>
        </mxCell>
        <mxCell id="U1xN9qSYTa0BHSk3Pk5W-2" value="socket_state state: 소켓 상태" style="text;strokeColor=none;fillColor=none;align=left;verticalAlign=middle;spacingLeft=4;spacingRight=4;overflow=hidden;points=[[0,0.5],[1,0.5]];portConstraint=eastwest;rotatable=0;whiteSpace=wrap;html=1;" parent="U1xN9qSYTa0BHSk3Pk5W-1" vertex="1">
          <mxGeometry y="30" width="240" height="30" as="geometry" />
        </mxCell>
        <mxCell id="U1xN9qSYTa0BHSk3Pk5W-3" value="short type: 소켓 타입(ex SOCK_STREAM)" style="text;strokeColor=none;fillColor=none;align=left;verticalAlign=middle;spacingLeft=4;spacingRight=4;overflow=hidden;points=[[0,0.5],[1,0.5]];portConstraint=eastwest;rotatable=0;whiteSpace=wrap;html=1;" parent="U1xN9qSYTa0BHSk3Pk5W-1" vertex="1">
          <mxGeometry y="60" width="240" height="30" as="geometry" />
        </mxCell>
        <mxCell id="U1xN9qSYTa0BHSk3Pk5W-4" value="unsigned long flags: 플래그" style="text;strokeColor=none;fillColor=none;align=left;verticalAlign=middle;spacingLeft=4;spacingRight=4;overflow=hidden;points=[[0,0.5],[1,0.5]];portConstraint=eastwest;rotatable=0;whiteSpace=wrap;html=1;" parent="U1xN9qSYTa0BHSk3Pk5W-1" vertex="1">
          <mxGeometry y="90" width="240" height="30" as="geometry" />
        </mxCell>
        <mxCell id="U1xN9qSYTa0BHSk3Pk5W-10" value="file* file: 파일 디스크립터 포인터" style="text;strokeColor=none;fillColor=none;align=left;verticalAlign=middle;spacingLeft=4;spacingRight=4;overflow=hidden;points=[[0,0.5],[1,0.5]];portConstraint=eastwest;rotatable=0;whiteSpace=wrap;html=1;" parent="U1xN9qSYTa0BHSk3Pk5W-1" vertex="1">
          <mxGeometry y="120" width="240" height="30" as="geometry" />
        </mxCell>
        <mxCell id="U1xN9qSYTa0BHSk3Pk5W-9" value="sock *sk: 네트워크 프로토콜 연결 구조체" style="text;strokeColor=none;fillColor=none;align=left;verticalAlign=middle;spacingLeft=4;spacingRight=4;overflow=hidden;points=[[0,0.5],[1,0.5]];portConstraint=eastwest;rotatable=0;whiteSpace=wrap;html=1;" parent="U1xN9qSYTa0BHSk3Pk5W-1" vertex="1">
          <mxGeometry y="150" width="240" height="30" as="geometry" />
        </mxCell>
        <mxCell id="U1xN9qSYTa0BHSk3Pk5W-8" value="proto_ops* ops: 프로토콜별 함수 테이블" style="text;strokeColor=none;fillColor=none;align=left;verticalAlign=middle;spacingLeft=4;spacingRight=4;overflow=hidden;points=[[0,0.5],[1,0.5]];portConstraint=eastwest;rotatable=0;whiteSpace=wrap;html=1;" parent="U1xN9qSYTa0BHSk3Pk5W-1" vertex="1">
          <mxGeometry y="180" width="240" height="30" as="geometry" />
        </mxCell>
        <mxCell id="U1xN9qSYTa0BHSk3Pk5W-11" value="socket_wq wq: 소켓 대기 큐" style="text;strokeColor=none;fillColor=none;align=left;verticalAlign=middle;spacingLeft=4;spacingRight=4;overflow=hidden;points=[[0,0.5],[1,0.5]];portConstraint=eastwest;rotatable=0;whiteSpace=wrap;html=1;" parent="U1xN9qSYTa0BHSk3Pk5W-1" vertex="1">
          <mxGeometry y="210" width="240" height="30" as="geometry" />
        </mxCell>
        <mxCell id="U1xN9qSYTa0BHSk3Pk5W-12" value="struct sock" style="swimlane;fontStyle=0;childLayout=stackLayout;horizontal=1;startSize=30;horizontalStack=0;resizeParent=1;resizeParentMax=0;resizeLast=0;collapsible=1;marginBottom=0;whiteSpace=wrap;html=1;" parent="WIyWlLk6GJQsqaUBKTNV-1" vertex="1">
          <mxGeometry x="80" y="300" width="240" height="3200" as="geometry">
            <mxRectangle x="80" y="40" width="110" height="30" as="alternateBounds" />
          </mxGeometry>
        </mxCell>
        <mxCell id="U1xN9qSYTa0BHSk3Pk5W-38" value="__sk_common: inet_timewait_sock과 레이아웃을 공유하는 공통 부분" style="text;strokeColor=none;fillColor=none;align=left;verticalAlign=middle;spacingLeft=4;spacingRight=4;overflow=hidden;points=[[0,0.5],[1,0.5]];portConstraint=eastwest;rotatable=0;whiteSpace=wrap;html=1;" parent="U1xN9qSYTa0BHSk3Pk5W-12" vertex="1">
          <mxGeometry y="30" width="240" height="30" as="geometry" />
        </mxCell>
        <mxCell id="U1xN9qSYTa0BHSk3Pk5W-58" value="&lt;div&gt;&lt;span style=&quot;background-color: transparent; color: light-dark(rgb(0, 0, 0), rgb(255, 255, 255));&quot;&gt;sk_shutdown: SEND_SHUTDOWN 및/또는 RCV_SHUTDOWN 마스크&lt;/span&gt;&lt;/div&gt;" style="text;strokeColor=none;fillColor=none;align=left;verticalAlign=middle;spacingLeft=4;spacingRight=4;overflow=hidden;points=[[0,0.5],[1,0.5]];portConstraint=eastwest;rotatable=0;whiteSpace=wrap;html=1;" parent="U1xN9qSYTa0BHSk3Pk5W-12" vertex="1">
          <mxGeometry y="60" width="240" height="30" as="geometry" />
        </mxCell>
        <mxCell id="U1xN9qSYTa0BHSk3Pk5W-59" value="sk_userlocks: SO_SNDBUF, SO_RCVBUF 설정값" style="text;strokeColor=none;fillColor=none;align=left;verticalAlign=middle;spacingLeft=4;spacingRight=4;overflow=hidden;points=[[0,0.5],[1,0.5]];portConstraint=eastwest;rotatable=0;whiteSpace=wrap;html=1;" parent="U1xN9qSYTa0BHSk3Pk5W-12" vertex="1">
          <mxGeometry y="90" width="240" height="30" as="geometry" />
        </mxCell>
        <mxCell id="U1xN9qSYTa0BHSk3Pk5W-60" value="sk_lock: 동기화용 락" style="text;strokeColor=none;fillColor=none;align=left;verticalAlign=middle;spacingLeft=4;spacingRight=4;overflow=hidden;points=[[0,0.5],[1,0.5]];portConstraint=eastwest;rotatable=0;whiteSpace=wrap;html=1;" parent="U1xN9qSYTa0BHSk3Pk5W-12" vertex="1">
          <mxGeometry y="120" width="240" height="30" as="geometry" />
        </mxCell>
        <mxCell id="U1xN9qSYTa0BHSk3Pk5W-61" value="sk_kern_sock: 커널 락 클래스를 사용하는 소켓 여부" style="text;strokeColor=none;fillColor=none;align=left;verticalAlign=middle;spacingLeft=4;spacingRight=4;overflow=hidden;points=[[0,0.5],[1,0.5]];portConstraint=eastwest;rotatable=0;whiteSpace=wrap;html=1;" parent="U1xN9qSYTa0BHSk3Pk5W-12" vertex="1">
          <mxGeometry y="150" width="240" height="30" as="geometry" />
        </mxCell>
        <mxCell id="U1xN9qSYTa0BHSk3Pk5W-62" value="sk_rcvbuf: 수신 버퍼 크기(바이트)" style="text;strokeColor=none;fillColor=none;align=left;verticalAlign=middle;spacingLeft=4;spacingRight=4;overflow=hidden;points=[[0,0.5],[1,0.5]];portConstraint=eastwest;rotatable=0;whiteSpace=wrap;html=1;" parent="U1xN9qSYTa0BHSk3Pk5W-12" vertex="1">
          <mxGeometry y="180" width="240" height="30" as="geometry" />
        </mxCell>
        <mxCell id="U1xN9qSYTa0BHSk3Pk5W-63" value="sk_wq: 소켓 대기 큐 및 비동기 헤드" style="text;strokeColor=none;fillColor=none;align=left;verticalAlign=middle;spacingLeft=4;spacingRight=4;overflow=hidden;points=[[0,0.5],[1,0.5]];portConstraint=eastwest;rotatable=0;whiteSpace=wrap;html=1;" parent="U1xN9qSYTa0BHSk3Pk5W-12" vertex="1">
          <mxGeometry y="210" width="240" height="30" as="geometry" />
        </mxCell>
        <mxCell id="U1xN9qSYTa0BHSk3Pk5W-64" value="sk_rx_dst: early demux에서 사용되는 수신 입력 경로" style="text;strokeColor=none;fillColor=none;align=left;verticalAlign=middle;spacingLeft=4;spacingRight=4;overflow=hidden;points=[[0,0.5],[1,0.5]];portConstraint=eastwest;rotatable=0;whiteSpace=wrap;html=1;" parent="U1xN9qSYTa0BHSk3Pk5W-12" vertex="1">
          <mxGeometry y="240" width="240" height="30" as="geometry" />
        </mxCell>
        <mxCell id="U1xN9qSYTa0BHSk3Pk5W-65" value="sk_rx_dst_ifindex: sk_rx_dst의 ifindex" style="text;strokeColor=none;fillColor=none;align=left;verticalAlign=middle;spacingLeft=4;spacingRight=4;overflow=hidden;points=[[0,0.5],[1,0.5]];portConstraint=eastwest;rotatable=0;whiteSpace=wrap;html=1;" parent="U1xN9qSYTa0BHSk3Pk5W-12" vertex="1">
          <mxGeometry y="270" width="240" height="30" as="geometry" />
        </mxCell>
        <mxCell id="U1xN9qSYTa0BHSk3Pk5W-66" value="sk_rx_dst_cookie: sk_rx_dst의 쿠키" style="text;strokeColor=none;fillColor=none;align=left;verticalAlign=middle;spacingLeft=4;spacingRight=4;overflow=hidden;points=[[0,0.5],[1,0.5]];portConstraint=eastwest;rotatable=0;whiteSpace=wrap;html=1;" parent="U1xN9qSYTa0BHSk3Pk5W-12" vertex="1">
          <mxGeometry y="300" width="240" height="30" as="geometry" />
        </mxCell>
        <mxCell id="U1xN9qSYTa0BHSk3Pk5W-67" value="sk_dst_cache: 목적지 캐시" style="text;strokeColor=none;fillColor=none;align=left;verticalAlign=middle;spacingLeft=4;spacingRight=4;overflow=hidden;points=[[0,0.5],[1,0.5]];portConstraint=eastwest;rotatable=0;whiteSpace=wrap;html=1;" parent="U1xN9qSYTa0BHSk3Pk5W-12" vertex="1">
          <mxGeometry y="330" width="240" height="30" as="geometry" />
        </mxCell>
        <mxCell id="U1xN9qSYTa0BHSk3Pk5W-68" value="sk_dst_pending_confirm: 이웃 확인 필요 여부" style="text;strokeColor=none;fillColor=none;align=left;verticalAlign=middle;spacingLeft=4;spacingRight=4;overflow=hidden;points=[[0,0.5],[1,0.5]];portConstraint=eastwest;rotatable=0;whiteSpace=wrap;html=1;" parent="U1xN9qSYTa0BHSk3Pk5W-12" vertex="1">
          <mxGeometry y="360" width="240" height="30" as="geometry" />
        </mxCell>
        <mxCell id="U1xN9qSYTa0BHSk3Pk5W-69" value="sk_policy: 플로우 정책" style="text;strokeColor=none;fillColor=none;align=left;verticalAlign=middle;spacingLeft=4;spacingRight=4;overflow=hidden;points=[[0,0.5],[1,0.5]];portConstraint=eastwest;rotatable=0;whiteSpace=wrap;html=1;" parent="U1xN9qSYTa0BHSk3Pk5W-12" vertex="1">
          <mxGeometry y="390" width="240" height="30" as="geometry" />
        </mxCell>
        <mxCell id="U1xN9qSYTa0BHSk3Pk5W-70" value="sk_receive_queue: 수신 패킷 큐" style="text;strokeColor=none;fillColor=none;align=left;verticalAlign=middle;spacingLeft=4;spacingRight=4;overflow=hidden;points=[[0,0.5],[1,0.5]];portConstraint=eastwest;rotatable=0;whiteSpace=wrap;html=1;" parent="U1xN9qSYTa0BHSk3Pk5W-12" vertex="1">
          <mxGeometry y="420" width="240" height="30" as="geometry" />
        </mxCell>
        <mxCell id="U1xN9qSYTa0BHSk3Pk5W-71" value="sk_wmem_alloc: 송신 큐에 할당된 바이트" style="text;strokeColor=none;fillColor=none;align=left;verticalAlign=middle;spacingLeft=4;spacingRight=4;overflow=hidden;points=[[0,0.5],[1,0.5]];portConstraint=eastwest;rotatable=0;whiteSpace=wrap;html=1;" parent="U1xN9qSYTa0BHSk3Pk5W-12" vertex="1">
          <mxGeometry y="450" width="240" height="30" as="geometry" />
        </mxCell>
        <mxCell id="U1xN9qSYTa0BHSk3Pk5W-72" value="sk_tsq_flags: TCP Small Queues 플래그" style="text;strokeColor=none;fillColor=none;align=left;verticalAlign=middle;spacingLeft=4;spacingRight=4;overflow=hidden;points=[[0,0.5],[1,0.5]];portConstraint=eastwest;rotatable=0;whiteSpace=wrap;html=1;" parent="U1xN9qSYTa0BHSk3Pk5W-12" vertex="1">
          <mxGeometry y="480" width="240" height="30" as="geometry" />
        </mxCell>
        <mxCell id="U1xN9qSYTa0BHSk3Pk5W-73" value="sk_write_queue: 송신 패킷 큐" style="text;strokeColor=none;fillColor=none;align=left;verticalAlign=middle;spacingLeft=4;spacingRight=4;overflow=hidden;points=[[0,0.5],[1,0.5]];portConstraint=eastwest;rotatable=0;whiteSpace=wrap;html=1;" parent="U1xN9qSYTa0BHSk3Pk5W-12" vertex="1">
          <mxGeometry y="510" width="240" height="30" as="geometry" />
        </mxCell>
        <mxCell id="U1xN9qSYTa0BHSk3Pk5W-74" value="sk_omem_alloc: 옵션/기타 메모리 할당" style="text;strokeColor=none;fillColor=none;align=left;verticalAlign=middle;spacingLeft=4;spacingRight=4;overflow=hidden;points=[[0,0.5],[1,0.5]];portConstraint=eastwest;rotatable=0;whiteSpace=wrap;html=1;" parent="U1xN9qSYTa0BHSk3Pk5W-12" vertex="1">
          <mxGeometry y="540" width="240" height="30" as="geometry" />
        </mxCell>
        <mxCell id="U1xN9qSYTa0BHSk3Pk5W-75" value="sk_wmem_queued: 지속적인 큐 크기" style="text;strokeColor=none;fillColor=none;align=left;verticalAlign=middle;spacingLeft=4;spacingRight=4;overflow=hidden;points=[[0,0.5],[1,0.5]];portConstraint=eastwest;rotatable=0;whiteSpace=wrap;html=1;" parent="U1xN9qSYTa0BHSk3Pk5W-12" vertex="1">
          <mxGeometry y="570" width="240" height="30" as="geometry" />
        </mxCell>
        <mxCell id="U1xN9qSYTa0BHSk3Pk5W-76" value="sk_forward_alloc: 미리 할당된 공간" style="text;strokeColor=none;fillColor=none;align=left;verticalAlign=middle;spacingLeft=4;spacingRight=4;overflow=hidden;points=[[0,0.5],[1,0.5]];portConstraint=eastwest;rotatable=0;whiteSpace=wrap;html=1;" parent="U1xN9qSYTa0BHSk3Pk5W-12" vertex="1">
          <mxGeometry y="600" width="240" height="30" as="geometry" />
        </mxCell>
        <mxCell id="U1xN9qSYTa0BHSk3Pk5W-77" value="sk_reserved_mem: 소켓에 예약된 비회수 메모리" style="text;strokeColor=none;fillColor=none;align=left;verticalAlign=middle;spacingLeft=4;spacingRight=4;overflow=hidden;points=[[0,0.5],[1,0.5]];portConstraint=eastwest;rotatable=0;whiteSpace=wrap;html=1;" parent="U1xN9qSYTa0BHSk3Pk5W-12" vertex="1">
          <mxGeometry y="630" width="240" height="30" as="geometry" />
        </mxCell>
        <mxCell id="U1xN9qSYTa0BHSk3Pk5W-78" value="sk_napi_id: 마지막으로 데이터 수신한 napi 컨텍스트 id" style="text;strokeColor=none;fillColor=none;align=left;verticalAlign=middle;spacingLeft=4;spacingRight=4;overflow=hidden;points=[[0,0.5],[1,0.5]];portConstraint=eastwest;rotatable=0;whiteSpace=wrap;html=1;" parent="U1xN9qSYTa0BHSk3Pk5W-12" vertex="1">
          <mxGeometry y="660" width="240" height="30" as="geometry" />
        </mxCell>
        <mxCell id="U1xN9qSYTa0BHSk3Pk5W-79" value="sk_ll_usec: 데이터 없을 때 busypoll 대기 usec" style="text;strokeColor=none;fillColor=none;align=left;verticalAlign=middle;spacingLeft=4;spacingRight=4;overflow=hidden;points=[[0,0.5],[1,0.5]];portConstraint=eastwest;rotatable=0;whiteSpace=wrap;html=1;" parent="U1xN9qSYTa0BHSk3Pk5W-12" vertex="1">
          <mxGeometry y="690" width="240" height="30" as="geometry" />
        </mxCell>
        <mxCell id="U1xN9qSYTa0BHSk3Pk5W-80" value="sk_allocation: 할당 모드" style="text;strokeColor=none;fillColor=none;align=left;verticalAlign=middle;spacingLeft=4;spacingRight=4;overflow=hidden;points=[[0,0.5],[1,0.5]];portConstraint=eastwest;rotatable=0;whiteSpace=wrap;html=1;" parent="U1xN9qSYTa0BHSk3Pk5W-12" vertex="1">
          <mxGeometry y="720" width="240" height="30" as="geometry" />
        </mxCell>
        <mxCell id="U1xN9qSYTa0BHSk3Pk5W-81" value="sk_pacing_rate: 패킷 스케줄러/전송 계층의 pacing rate" style="text;strokeColor=none;fillColor=none;align=left;verticalAlign=middle;spacingLeft=4;spacingRight=4;overflow=hidden;points=[[0,0.5],[1,0.5]];portConstraint=eastwest;rotatable=0;whiteSpace=wrap;html=1;" parent="U1xN9qSYTa0BHSk3Pk5W-12" vertex="1">
          <mxGeometry y="750" width="240" height="30" as="geometry" />
        </mxCell>
        <mxCell id="U1xN9qSYTa0BHSk3Pk5W-82" value="sk_pacing_status: pacing 상태(요청됨, sch_fq에서 처리됨 등)" style="text;strokeColor=none;fillColor=none;align=left;verticalAlign=middle;spacingLeft=4;spacingRight=4;overflow=hidden;points=[[0,0.5],[1,0.5]];portConstraint=eastwest;rotatable=0;whiteSpace=wrap;html=1;" parent="U1xN9qSYTa0BHSk3Pk5W-12" vertex="1">
          <mxGeometry y="780" width="240" height="30" as="geometry" />
        </mxCell>
        <mxCell id="U1xN9qSYTa0BHSk3Pk5W-83" value="sk_max_pacing_rate: 최대 pacing rate(SO_MAX_PACING_RATE)" style="text;strokeColor=none;fillColor=none;align=left;verticalAlign=middle;spacingLeft=4;spacingRight=4;overflow=hidden;points=[[0,0.5],[1,0.5]];portConstraint=eastwest;rotatable=0;whiteSpace=wrap;html=1;" parent="U1xN9qSYTa0BHSk3Pk5W-12" vertex="1">
          <mxGeometry y="810" width="240" height="30" as="geometry" />
        </mxCell>
        <mxCell id="U1xN9qSYTa0BHSk3Pk5W-84" value="sk_sndbuf: 송신 버퍼 크기(바이트)" style="text;strokeColor=none;fillColor=none;align=left;verticalAlign=middle;spacingLeft=4;spacingRight=4;overflow=hidden;points=[[0,0.5],[1,0.5]];portConstraint=eastwest;rotatable=0;whiteSpace=wrap;html=1;" parent="U1xN9qSYTa0BHSk3Pk5W-12" vertex="1">
          <mxGeometry y="840" width="240" height="30" as="geometry" />
        </mxCell>
        <mxCell id="U1xN9qSYTa0BHSk3Pk5W-85" value="sk_no_check_tx: SO_NO_CHECK 설정, TX 패킷 체크섬 설정" style="text;strokeColor=none;fillColor=none;align=left;verticalAlign=middle;spacingLeft=4;spacingRight=4;overflow=hidden;points=[[0,0.5],[1,0.5]];portConstraint=eastwest;rotatable=0;whiteSpace=wrap;html=1;" parent="U1xN9qSYTa0BHSk3Pk5W-12" vertex="1">
          <mxGeometry y="870" width="240" height="30" as="geometry" />
        </mxCell>
        <mxCell id="U1xN9qSYTa0BHSk3Pk5W-86" value="sk_no_check_rx: RX 패킷에서 체크섬 0 허용" style="text;strokeColor=none;fillColor=none;align=left;verticalAlign=middle;spacingLeft=4;spacingRight=4;overflow=hidden;points=[[0,0.5],[1,0.5]];portConstraint=eastwest;rotatable=0;whiteSpace=wrap;html=1;" parent="U1xN9qSYTa0BHSk3Pk5W-12" vertex="1">
          <mxGeometry y="900" width="240" height="30" as="geometry" />
        </mxCell>
        <mxCell id="U1xN9qSYTa0BHSk3Pk5W-87" value="sk_route_caps: 경로 기능(예: NETIF_F_TSO)" style="text;strokeColor=none;fillColor=none;align=left;verticalAlign=middle;spacingLeft=4;spacingRight=4;overflow=hidden;points=[[0,0.5],[1,0.5]];portConstraint=eastwest;rotatable=0;whiteSpace=wrap;html=1;" parent="U1xN9qSYTa0BHSk3Pk5W-12" vertex="1">
          <mxGeometry y="930" width="240" height="30" as="geometry" />
        </mxCell>
        <mxCell id="U1xN9qSYTa0BHSk3Pk5W-88" value="sk_gso_disabled: NETIF_F_GSO_MASK 금지 여부" style="text;strokeColor=none;fillColor=none;align=left;verticalAlign=middle;spacingLeft=4;spacingRight=4;overflow=hidden;points=[[0,0.5],[1,0.5]];portConstraint=eastwest;rotatable=0;whiteSpace=wrap;html=1;" parent="U1xN9qSYTa0BHSk3Pk5W-12" vertex="1">
          <mxGeometry y="960" width="240" height="30" as="geometry" />
        </mxCell>
        <mxCell id="U1xN9qSYTa0BHSk3Pk5W-89" value="sk_gso_type: GSO 타입(예: SKB_GSO_TCPV4)" style="text;strokeColor=none;fillColor=none;align=left;verticalAlign=middle;spacingLeft=4;spacingRight=4;overflow=hidden;points=[[0,0.5],[1,0.5]];portConstraint=eastwest;rotatable=0;whiteSpace=wrap;html=1;" parent="U1xN9qSYTa0BHSk3Pk5W-12" vertex="1">
          <mxGeometry y="990" width="240" height="30" as="geometry" />
        </mxCell>
        <mxCell id="U1xN9qSYTa0BHSk3Pk5W-90" value="sk_gso_max_size: 최대 GSO 세그먼트 크기" style="text;strokeColor=none;fillColor=none;align=left;verticalAlign=middle;spacingLeft=4;spacingRight=4;overflow=hidden;points=[[0,0.5],[1,0.5]];portConstraint=eastwest;rotatable=0;whiteSpace=wrap;html=1;" parent="U1xN9qSYTa0BHSk3Pk5W-12" vertex="1">
          <mxGeometry y="1020" width="240" height="30" as="geometry" />
        </mxCell>
        <mxCell id="U1xN9qSYTa0BHSk3Pk5W-91" value="sk_gso_max_segs: 최대 GSO 세그먼트 개수" style="text;strokeColor=none;fillColor=none;align=left;verticalAlign=middle;spacingLeft=4;spacingRight=4;overflow=hidden;points=[[0,0.5],[1,0.5]];portConstraint=eastwest;rotatable=0;whiteSpace=wrap;html=1;" parent="U1xN9qSYTa0BHSk3Pk5W-12" vertex="1">
          <mxGeometry y="1050" width="240" height="30" as="geometry" />
        </mxCell>
        <mxCell id="U1xN9qSYTa0BHSk3Pk5W-92" value="sk_pacing_shift: TCP Small Queues용 스케일링 팩터" style="text;strokeColor=none;fillColor=none;align=left;verticalAlign=middle;spacingLeft=4;spacingRight=4;overflow=hidden;points=[[0,0.5],[1,0.5]];portConstraint=eastwest;rotatable=0;whiteSpace=wrap;html=1;" parent="U1xN9qSYTa0BHSk3Pk5W-12" vertex="1">
          <mxGeometry y="1080" width="240" height="30" as="geometry" />
        </mxCell>
        <mxCell id="U1xN9qSYTa0BHSk3Pk5W-93" value="sk_lingertime: SO_LINGER l_linger 설정" style="text;strokeColor=none;fillColor=none;align=left;verticalAlign=middle;spacingLeft=4;spacingRight=4;overflow=hidden;points=[[0,0.5],[1,0.5]];portConstraint=eastwest;rotatable=0;whiteSpace=wrap;html=1;" parent="U1xN9qSYTa0BHSk3Pk5W-12" vertex="1">
          <mxGeometry y="1110" width="240" height="30" as="geometry" />
        </mxCell>
        <mxCell id="U1xN9qSYTa0BHSk3Pk5W-94" value="sk_backlog: per-socket spinlock 보유 시 항상 사용되는 백로그 큐" style="text;strokeColor=none;fillColor=none;align=left;verticalAlign=middle;spacingLeft=4;spacingRight=4;overflow=hidden;points=[[0,0.5],[1,0.5]];portConstraint=eastwest;rotatable=0;whiteSpace=wrap;html=1;" parent="U1xN9qSYTa0BHSk3Pk5W-12" vertex="1">
          <mxGeometry y="1140" width="240" height="30" as="geometry" />
        </mxCell>
        <mxCell id="U1xN9qSYTa0BHSk3Pk5W-95" value="sk_callback_lock: 구조체 끝부분 콜백 보호용 락" style="text;strokeColor=none;fillColor=none;align=left;verticalAlign=middle;spacingLeft=4;spacingRight=4;overflow=hidden;points=[[0,0.5],[1,0.5]];portConstraint=eastwest;rotatable=0;whiteSpace=wrap;html=1;" parent="U1xN9qSYTa0BHSk3Pk5W-12" vertex="1">
          <mxGeometry y="1170" width="240" height="30" as="geometry" />
        </mxCell>
        <mxCell id="U1xN9qSYTa0BHSk3Pk5W-96" value="sk_error_queue: 드물게 사용되는 에러 큐" style="text;strokeColor=none;fillColor=none;align=left;verticalAlign=middle;spacingLeft=4;spacingRight=4;overflow=hidden;points=[[0,0.5],[1,0.5]];portConstraint=eastwest;rotatable=0;whiteSpace=wrap;html=1;" parent="U1xN9qSYTa0BHSk3Pk5W-12" vertex="1">
          <mxGeometry y="1200" width="240" height="30" as="geometry" />
        </mxCell>
        <mxCell id="U1xN9qSYTa0BHSk3Pk5W-97" value="sk_prot_creator: 원래 소켓 생성자의 sk_prot(ipv6_setsockopt 등에서 사용)" style="text;strokeColor=none;fillColor=none;align=left;verticalAlign=middle;spacingLeft=4;spacingRight=4;overflow=hidden;points=[[0,0.5],[1,0.5]];portConstraint=eastwest;rotatable=0;whiteSpace=wrap;html=1;" parent="U1xN9qSYTa0BHSk3Pk5W-12" vertex="1">
          <mxGeometry y="1230" width="240" height="30" as="geometry" />
        </mxCell>
        <mxCell id="U1xN9qSYTa0BHSk3Pk5W-98" value="sk_err: 마지막 에러" style="text;strokeColor=none;fillColor=none;align=left;verticalAlign=middle;spacingLeft=4;spacingRight=4;overflow=hidden;points=[[0,0.5],[1,0.5]];portConstraint=eastwest;rotatable=0;whiteSpace=wrap;html=1;" parent="U1xN9qSYTa0BHSk3Pk5W-12" vertex="1">
          <mxGeometry y="1260" width="240" height="30" as="geometry" />
        </mxCell>
        <mxCell id="U1xN9qSYTa0BHSk3Pk5W-99" value="sk_err_soft: 실패를 유발하지 않지만 지속적 실패 원인이 되는 에러" style="text;strokeColor=none;fillColor=none;align=left;verticalAlign=middle;spacingLeft=4;spacingRight=4;overflow=hidden;points=[[0,0.5],[1,0.5]];portConstraint=eastwest;rotatable=0;whiteSpace=wrap;html=1;" parent="U1xN9qSYTa0BHSk3Pk5W-12" vertex="1">
          <mxGeometry y="1290" width="240" height="30" as="geometry" />
        </mxCell>
        <mxCell id="U1xN9qSYTa0BHSk3Pk5W-100" value="sk_drops: raw/udp 드롭 카운터" style="text;strokeColor=none;fillColor=none;align=left;verticalAlign=middle;spacingLeft=4;spacingRight=4;overflow=hidden;points=[[0,0.5],[1,0.5]];portConstraint=eastwest;rotatable=0;whiteSpace=wrap;html=1;" parent="U1xN9qSYTa0BHSk3Pk5W-12" vertex="1">
          <mxGeometry y="1320" width="240" height="30" as="geometry" />
        </mxCell>
        <mxCell id="U1xN9qSYTa0BHSk3Pk5W-101" value="sk_ack_backlog: 현재 리슨 백로그" style="text;strokeColor=none;fillColor=none;align=left;verticalAlign=middle;spacingLeft=4;spacingRight=4;overflow=hidden;points=[[0,0.5],[1,0.5]];portConstraint=eastwest;rotatable=0;whiteSpace=wrap;html=1;" parent="U1xN9qSYTa0BHSk3Pk5W-12" vertex="1">
          <mxGeometry y="1350" width="240" height="30" as="geometry" />
        </mxCell>
        <mxCell id="U1xN9qSYTa0BHSk3Pk5W-102" value="sk_max_ack_backlog: listen()에서 설정된 백로그" style="text;strokeColor=none;fillColor=none;align=left;verticalAlign=middle;spacingLeft=4;spacingRight=4;overflow=hidden;points=[[0,0.5],[1,0.5]];portConstraint=eastwest;rotatable=0;whiteSpace=wrap;html=1;" parent="U1xN9qSYTa0BHSk3Pk5W-12" vertex="1">
          <mxGeometry y="1380" width="240" height="30" as="geometry" />
        </mxCell>
        <mxCell id="U1xN9qSYTa0BHSk3Pk5W-103" value="sk_uid: 소유자 uid" style="text;strokeColor=none;fillColor=none;align=left;verticalAlign=middle;spacingLeft=4;spacingRight=4;overflow=hidden;points=[[0,0.5],[1,0.5]];portConstraint=eastwest;rotatable=0;whiteSpace=wrap;html=1;" parent="U1xN9qSYTa0BHSk3Pk5W-12" vertex="1">
          <mxGeometry y="1410" width="240" height="30" as="geometry" />
        </mxCell>
        <mxCell id="U1xN9qSYTa0BHSk3Pk5W-104" value="sk_prefer_busy_poll: softirq 처리보다 busypoll 선호 여부" style="text;strokeColor=none;fillColor=none;align=left;verticalAlign=middle;spacingLeft=4;spacingRight=4;overflow=hidden;points=[[0,0.5],[1,0.5]];portConstraint=eastwest;rotatable=0;whiteSpace=wrap;html=1;" parent="U1xN9qSYTa0BHSk3Pk5W-12" vertex="1">
          <mxGeometry y="1440" width="240" height="30" as="geometry" />
        </mxCell>
        <mxCell id="U1xN9qSYTa0BHSk3Pk5W-105" value="sk_busy_poll_budget: busypoll 시 napi 처리 budget" style="text;strokeColor=none;fillColor=none;align=left;verticalAlign=middle;spacingLeft=4;spacingRight=4;overflow=hidden;points=[[0,0.5],[1,0.5]];portConstraint=eastwest;rotatable=0;whiteSpace=wrap;html=1;" parent="U1xN9qSYTa0BHSk3Pk5W-12" vertex="1">
          <mxGeometry y="1470" width="240" height="30" as="geometry" />
        </mxCell>
        <mxCell id="U1xN9qSYTa0BHSk3Pk5W-106" value="sk_priority: SO_PRIORITY 설정값" style="text;strokeColor=none;fillColor=none;align=left;verticalAlign=middle;spacingLeft=4;spacingRight=4;overflow=hidden;points=[[0,0.5],[1,0.5]];portConstraint=eastwest;rotatable=0;whiteSpace=wrap;html=1;" parent="U1xN9qSYTa0BHSk3Pk5W-12" vertex="1">
          <mxGeometry y="1500" width="240" height="30" as="geometry" />
        </mxCell>
        <mxCell id="U1xN9qSYTa0BHSk3Pk5W-107" value="sk_type: 소켓 타입(SOCK_STREAM 등)" style="text;strokeColor=none;fillColor=none;align=left;verticalAlign=middle;spacingLeft=4;spacingRight=4;overflow=hidden;points=[[0,0.5],[1,0.5]];portConstraint=eastwest;rotatable=0;whiteSpace=wrap;html=1;" parent="U1xN9qSYTa0BHSk3Pk5W-12" vertex="1">
          <mxGeometry y="1530" width="240" height="30" as="geometry" />
        </mxCell>
        <mxCell id="U1xN9qSYTa0BHSk3Pk5W-108" value="sk_protocol: 네트워크 패밀리 내 프로토콜 종류" style="text;strokeColor=none;fillColor=none;align=left;verticalAlign=middle;spacingLeft=4;spacingRight=4;overflow=hidden;points=[[0,0.5],[1,0.5]];portConstraint=eastwest;rotatable=0;whiteSpace=wrap;html=1;" parent="U1xN9qSYTa0BHSk3Pk5W-12" vertex="1">
          <mxGeometry y="1560" width="240" height="30" as="geometry" />
        </mxCell>
        <mxCell id="U1xN9qSYTa0BHSk3Pk5W-109" value="sk_peer_lock: sk_peer_pid, sk_peer_cred 보호용 락" style="text;strokeColor=none;fillColor=none;align=left;verticalAlign=middle;spacingLeft=4;spacingRight=4;overflow=hidden;points=[[0,0.5],[1,0.5]];portConstraint=eastwest;rotatable=0;whiteSpace=wrap;html=1;" parent="U1xN9qSYTa0BHSk3Pk5W-12" vertex="1">
          <mxGeometry y="1590" width="240" height="30" as="geometry" />
        </mxCell>
        <mxCell id="U1xN9qSYTa0BHSk3Pk5W-110" value="sk_peer_pid: 피어의 struct pid" style="text;strokeColor=none;fillColor=none;align=left;verticalAlign=middle;spacingLeft=4;spacingRight=4;overflow=hidden;points=[[0,0.5],[1,0.5]];portConstraint=eastwest;rotatable=0;whiteSpace=wrap;html=1;" parent="U1xN9qSYTa0BHSk3Pk5W-12" vertex="1">
          <mxGeometry y="1620" width="240" height="30" as="geometry" />
        </mxCell>
        <mxCell id="U1xN9qSYTa0BHSk3Pk5W-111" value="sk_peer_cred: SO_PEERCRED 설정값" style="text;strokeColor=none;fillColor=none;align=left;verticalAlign=middle;spacingLeft=4;spacingRight=4;overflow=hidden;points=[[0,0.5],[1,0.5]];portConstraint=eastwest;rotatable=0;whiteSpace=wrap;html=1;" parent="U1xN9qSYTa0BHSk3Pk5W-12" vertex="1">
          <mxGeometry y="1650" width="240" height="30" as="geometry" />
        </mxCell>
        <mxCell id="U1xN9qSYTa0BHSk3Pk5W-112" value="sk_rcvlowat: SO_RCVLOWAT 설정값" style="text;strokeColor=none;fillColor=none;align=left;verticalAlign=middle;spacingLeft=4;spacingRight=4;overflow=hidden;points=[[0,0.5],[1,0.5]];portConstraint=eastwest;rotatable=0;whiteSpace=wrap;html=1;" parent="U1xN9qSYTa0BHSk3Pk5W-12" vertex="1">
          <mxGeometry y="1680" width="240" height="30" as="geometry" />
        </mxCell>
        <mxCell id="U1xN9qSYTa0BHSk3Pk5W-113" value="sk_rcvtimeo: SO_RCVTIMEO 설정값" style="text;strokeColor=none;fillColor=none;align=left;verticalAlign=middle;spacingLeft=4;spacingRight=4;overflow=hidden;points=[[0,0.5],[1,0.5]];portConstraint=eastwest;rotatable=0;whiteSpace=wrap;html=1;" parent="U1xN9qSYTa0BHSk3Pk5W-12" vertex="1">
          <mxGeometry y="1710" width="240" height="30" as="geometry" />
        </mxCell>
        <mxCell id="U1xN9qSYTa0BHSk3Pk5W-114" value="sk_sndtimeo: SO_SNDTIMEO 설정값" style="text;strokeColor=none;fillColor=none;align=left;verticalAlign=middle;spacingLeft=4;spacingRight=4;overflow=hidden;points=[[0,0.5],[1,0.5]];portConstraint=eastwest;rotatable=0;whiteSpace=wrap;html=1;" parent="U1xN9qSYTa0BHSk3Pk5W-12" vertex="1">
          <mxGeometry y="1740" width="240" height="30" as="geometry" />
        </mxCell>
        <mxCell id="U1xN9qSYTa0BHSk3Pk5W-115" value="sk_txhash: 송신에 사용되는 플로우 해시" style="text;strokeColor=none;fillColor=none;align=left;verticalAlign=middle;spacingLeft=4;spacingRight=4;overflow=hidden;points=[[0,0.5],[1,0.5]];portConstraint=eastwest;rotatable=0;whiteSpace=wrap;html=1;" parent="U1xN9qSYTa0BHSk3Pk5W-12" vertex="1">
          <mxGeometry y="1770" width="240" height="30" as="geometry" />
        </mxCell>
        <mxCell id="U1xN9qSYTa0BHSk3Pk5W-116" value="sk_txrehash: TX 해시 재계산 활성화" style="text;strokeColor=none;fillColor=none;align=left;verticalAlign=middle;spacingLeft=4;spacingRight=4;overflow=hidden;points=[[0,0.5],[1,0.5]];portConstraint=eastwest;rotatable=0;whiteSpace=wrap;html=1;" parent="U1xN9qSYTa0BHSk3Pk5W-12" vertex="1">
          <mxGeometry y="1800" width="240" height="30" as="geometry" />
        </mxCell>
        <mxCell id="U1xN9qSYTa0BHSk3Pk5W-117" value="sk_filter: 소켓 필터링 명령어" style="text;strokeColor=none;fillColor=none;align=left;verticalAlign=middle;spacingLeft=4;spacingRight=4;overflow=hidden;points=[[0,0.5],[1,0.5]];portConstraint=eastwest;rotatable=0;whiteSpace=wrap;html=1;" parent="U1xN9qSYTa0BHSk3Pk5W-12" vertex="1">
          <mxGeometry y="1830" width="240" height="30" as="geometry" />
        </mxCell>
        <mxCell id="U1xN9qSYTa0BHSk3Pk5W-118" value="sk_timer: 소켓 정리용 타이머" style="text;strokeColor=none;fillColor=none;align=left;verticalAlign=middle;spacingLeft=4;spacingRight=4;overflow=hidden;points=[[0,0.5],[1,0.5]];portConstraint=eastwest;rotatable=0;whiteSpace=wrap;html=1;" parent="U1xN9qSYTa0BHSk3Pk5W-12" vertex="1">
          <mxGeometry y="1860" width="240" height="30" as="geometry" />
        </mxCell>
        <mxCell id="U1xN9qSYTa0BHSk3Pk5W-119" value="sk_stamp: 마지막 수신 패킷의 타임스탬프" style="text;strokeColor=none;fillColor=none;align=left;verticalAlign=middle;spacingLeft=4;spacingRight=4;overflow=hidden;points=[[0,0.5],[1,0.5]];portConstraint=eastwest;rotatable=0;whiteSpace=wrap;html=1;" parent="U1xN9qSYTa0BHSk3Pk5W-12" vertex="1">
          <mxGeometry y="1890" width="240" height="30" as="geometry" />
        </mxCell>
        <mxCell id="U1xN9qSYTa0BHSk3Pk5W-120" value="sk_stamp_seq: 32비트 아키텍처에서 sk_stamp 접근용 락" style="text;strokeColor=none;fillColor=none;align=left;verticalAlign=middle;spacingLeft=4;spacingRight=4;overflow=hidden;points=[[0,0.5],[1,0.5]];portConstraint=eastwest;rotatable=0;whiteSpace=wrap;html=1;" parent="U1xN9qSYTa0BHSk3Pk5W-12" vertex="1">
          <mxGeometry y="1920" width="240" height="30" as="geometry" />
        </mxCell>
        <mxCell id="U1xN9qSYTa0BHSk3Pk5W-121" value="sk_tsflags: SO_TIMESTAMPING 플래그" style="text;strokeColor=none;fillColor=none;align=left;verticalAlign=middle;spacingLeft=4;spacingRight=4;overflow=hidden;points=[[0,0.5],[1,0.5]];portConstraint=eastwest;rotatable=0;whiteSpace=wrap;html=1;" parent="U1xN9qSYTa0BHSk3Pk5W-12" vertex="1">
          <mxGeometry y="1950" width="240" height="30" as="geometry" />
        </mxCell>
        <mxCell id="U1xN9qSYTa0BHSk3Pk5W-122" value="sk_bpf_cb_flags: bpf_setsockopt()에서 사용" style="text;strokeColor=none;fillColor=none;align=left;verticalAlign=middle;spacingLeft=4;spacingRight=4;overflow=hidden;points=[[0,0.5],[1,0.5]];portConstraint=eastwest;rotatable=0;whiteSpace=wrap;html=1;" parent="U1xN9qSYTa0BHSk3Pk5W-12" vertex="1">
          <mxGeometry y="1980" width="240" height="30" as="geometry" />
        </mxCell>
        <mxCell id="U1xN9qSYTa0BHSk3Pk5W-123" value="sk_use_task_frag: sk_page_frag()가 current-&amp;gt;task_frag 사용 허용 여부" style="text;strokeColor=none;fillColor=none;align=left;verticalAlign=middle;spacingLeft=4;spacingRight=4;overflow=hidden;points=[[0,0.5],[1,0.5]];portConstraint=eastwest;rotatable=0;whiteSpace=wrap;html=1;" parent="U1xN9qSYTa0BHSk3Pk5W-12" vertex="1">
          <mxGeometry y="2010" width="240" height="30" as="geometry" />
        </mxCell>
        <mxCell id="U1xN9qSYTa0BHSk3Pk5W-124" value="sk_bind_phc: SO_TIMESTAMPING용 PTP 가상 클럭 PHC 인덱스" style="text;strokeColor=none;fillColor=none;align=left;verticalAlign=middle;spacingLeft=4;spacingRight=4;overflow=hidden;points=[[0,0.5],[1,0.5]];portConstraint=eastwest;rotatable=0;whiteSpace=wrap;html=1;" parent="U1xN9qSYTa0BHSk3Pk5W-12" vertex="1">
          <mxGeometry y="2040" width="240" height="30" as="geometry" />
        </mxCell>
        <mxCell id="U1xN9qSYTa0BHSk3Pk5W-125" value="sk_tskey: 동시 타임스탬프 요청 구분용 카운터" style="text;strokeColor=none;fillColor=none;align=left;verticalAlign=middle;spacingLeft=4;spacingRight=4;overflow=hidden;points=[[0,0.5],[1,0.5]];portConstraint=eastwest;rotatable=0;whiteSpace=wrap;html=1;" parent="U1xN9qSYTa0BHSk3Pk5W-12" vertex="1">
          <mxGeometry y="2070" width="240" height="30" as="geometry" />
        </mxCell>
        <mxCell id="U1xN9qSYTa0BHSk3Pk5W-126" value="sk_zckey: MSG_ZEROCOPY 알림 순서용 카운터" style="text;strokeColor=none;fillColor=none;align=left;verticalAlign=middle;spacingLeft=4;spacingRight=4;overflow=hidden;points=[[0,0.5],[1,0.5]];portConstraint=eastwest;rotatable=0;whiteSpace=wrap;html=1;" parent="U1xN9qSYTa0BHSk3Pk5W-12" vertex="1">
          <mxGeometry y="2100" width="240" height="30" as="geometry" />
        </mxCell>
        <mxCell id="U1xN9qSYTa0BHSk3Pk5W-127" value="sk_socket: Identd 및 IO 신호 보고용" style="text;strokeColor=none;fillColor=none;align=left;verticalAlign=middle;spacingLeft=4;spacingRight=4;overflow=hidden;points=[[0,0.5],[1,0.5]];portConstraint=eastwest;rotatable=0;whiteSpace=wrap;html=1;" parent="U1xN9qSYTa0BHSk3Pk5W-12" vertex="1">
          <mxGeometry y="2130" width="240" height="30" as="geometry" />
        </mxCell>
        <mxCell id="U1xN9qSYTa0BHSk3Pk5W-128" value="sk_user_data: RPC 계층 프라이빗 데이터(콜백 락으로 보호)" style="text;strokeColor=none;fillColor=none;align=left;verticalAlign=middle;spacingLeft=4;spacingRight=4;overflow=hidden;points=[[0,0.5],[1,0.5]];portConstraint=eastwest;rotatable=0;whiteSpace=wrap;html=1;" parent="U1xN9qSYTa0BHSk3Pk5W-12" vertex="1">
          <mxGeometry y="2160" width="240" height="30" as="geometry" />
        </mxCell>
        <mxCell id="U1xN9qSYTa0BHSk3Pk5W-129" value="sk_frag: 캐시된 페이지 프래그먼트" style="text;strokeColor=none;fillColor=none;align=left;verticalAlign=middle;spacingLeft=4;spacingRight=4;overflow=hidden;points=[[0,0.5],[1,0.5]];portConstraint=eastwest;rotatable=0;whiteSpace=wrap;html=1;" parent="U1xN9qSYTa0BHSk3Pk5W-12" vertex="1">
          <mxGeometry y="2190" width="240" height="30" as="geometry" />
        </mxCell>
        <mxCell id="U1xN9qSYTa0BHSk3Pk5W-130" value="sk_peek_off: 현재 peek_offset 값" style="text;strokeColor=none;fillColor=none;align=left;verticalAlign=middle;spacingLeft=4;spacingRight=4;overflow=hidden;points=[[0,0.5],[1,0.5]];portConstraint=eastwest;rotatable=0;whiteSpace=wrap;html=1;" parent="U1xN9qSYTa0BHSk3Pk5W-12" vertex="1">
          <mxGeometry y="2220" width="240" height="30" as="geometry" />
        </mxCell>
        <mxCell id="U1xN9qSYTa0BHSk3Pk5W-131" value="sk_send_head: 송신 대기 중인 데이터의 선두" style="text;strokeColor=none;fillColor=none;align=left;verticalAlign=middle;spacingLeft=4;spacingRight=4;overflow=hidden;points=[[0,0.5],[1,0.5]];portConstraint=eastwest;rotatable=0;whiteSpace=wrap;html=1;" parent="U1xN9qSYTa0BHSk3Pk5W-12" vertex="1">
          <mxGeometry y="2250" width="240" height="30" as="geometry" />
        </mxCell>
        <mxCell id="U1xN9qSYTa0BHSk3Pk5W-132" value="tcp_rtx_queue: TCP 재전송 큐(sk_send_head와 union)" style="text;strokeColor=none;fillColor=none;align=left;verticalAlign=middle;spacingLeft=4;spacingRight=4;overflow=hidden;points=[[0,0.5],[1,0.5]];portConstraint=eastwest;rotatable=0;whiteSpace=wrap;html=1;" parent="U1xN9qSYTa0BHSk3Pk5W-12" vertex="1">
          <mxGeometry y="2280" width="240" height="30" as="geometry" />
        </mxCell>
        <mxCell id="U1xN9qSYTa0BHSk3Pk5W-133" value="sk_security: 보안 모듈에서 사용" style="text;strokeColor=none;fillColor=none;align=left;verticalAlign=middle;spacingLeft=4;spacingRight=4;overflow=hidden;points=[[0,0.5],[1,0.5]];portConstraint=eastwest;rotatable=0;whiteSpace=wrap;html=1;" parent="U1xN9qSYTa0BHSk3Pk5W-12" vertex="1">
          <mxGeometry y="2310" width="240" height="30" as="geometry" />
        </mxCell>
        <mxCell id="U1xN9qSYTa0BHSk3Pk5W-134" value="sk_mark: 패킷 마크" style="text;strokeColor=none;fillColor=none;align=left;verticalAlign=middle;spacingLeft=4;spacingRight=4;overflow=hidden;points=[[0,0.5],[1,0.5]];portConstraint=eastwest;rotatable=0;whiteSpace=wrap;html=1;" parent="U1xN9qSYTa0BHSk3Pk5W-12" vertex="1">
          <mxGeometry y="2340" width="240" height="30" as="geometry" />
        </mxCell>
        <mxCell id="U1xN9qSYTa0BHSk3Pk5W-135" value="sk_cgrp_data: cgroup 데이터" style="text;strokeColor=none;fillColor=none;align=left;verticalAlign=middle;spacingLeft=4;spacingRight=4;overflow=hidden;points=[[0,0.5],[1,0.5]];portConstraint=eastwest;rotatable=0;whiteSpace=wrap;html=1;" parent="U1xN9qSYTa0BHSk3Pk5W-12" vertex="1">
          <mxGeometry y="2370" width="240" height="30" as="geometry" />
        </mxCell>
        <mxCell id="U1xN9qSYTa0BHSk3Pk5W-136" value="sk_memcg: 메모리 cgroup 연관" style="text;strokeColor=none;fillColor=none;align=left;verticalAlign=middle;spacingLeft=4;spacingRight=4;overflow=hidden;points=[[0,0.5],[1,0.5]];portConstraint=eastwest;rotatable=0;whiteSpace=wrap;html=1;" parent="U1xN9qSYTa0BHSk3Pk5W-12" vertex="1">
          <mxGeometry y="2400" width="240" height="30" as="geometry" />
        </mxCell>
        <mxCell id="U1xN9qSYTa0BHSk3Pk5W-137" value="sk_write_pending: 스트림 소켓에서 쓰기 대기 중 여부" style="text;strokeColor=none;fillColor=none;align=left;verticalAlign=middle;spacingLeft=4;spacingRight=4;overflow=hidden;points=[[0,0.5],[1,0.5]];portConstraint=eastwest;rotatable=0;whiteSpace=wrap;html=1;" parent="U1xN9qSYTa0BHSk3Pk5W-12" vertex="1">
          <mxGeometry y="2430" width="240" height="30" as="geometry" />
        </mxCell>
        <mxCell id="U1xN9qSYTa0BHSk3Pk5W-138" value="sk_disconnects: 소켓에서 수행된 disconnect 횟수" style="text;strokeColor=none;fillColor=none;align=left;verticalAlign=middle;spacingLeft=4;spacingRight=4;overflow=hidden;points=[[0,0.5],[1,0.5]];portConstraint=eastwest;rotatable=0;whiteSpace=wrap;html=1;" parent="U1xN9qSYTa0BHSk3Pk5W-12" vertex="1">
          <mxGeometry y="2460" width="240" height="30" as="geometry" />
        </mxCell>
        <mxCell id="U1xN9qSYTa0BHSk3Pk5W-139" value="sk_state_change: 소켓 상태 변경 콜백" style="text;strokeColor=none;fillColor=none;align=left;verticalAlign=middle;spacingLeft=4;spacingRight=4;overflow=hidden;points=[[0,0.5],[1,0.5]];portConstraint=eastwest;rotatable=0;whiteSpace=wrap;html=1;" parent="U1xN9qSYTa0BHSk3Pk5W-12" vertex="1">
          <mxGeometry y="2490" width="240" height="30" as="geometry" />
        </mxCell>
        <mxCell id="U1xN9qSYTa0BHSk3Pk5W-140" value="sk_data_ready: 데이터 처리 필요 콜백" style="text;strokeColor=none;fillColor=none;align=left;verticalAlign=middle;spacingLeft=4;spacingRight=4;overflow=hidden;points=[[0,0.5],[1,0.5]];portConstraint=eastwest;rotatable=0;whiteSpace=wrap;html=1;" parent="U1xN9qSYTa0BHSk3Pk5W-12" vertex="1">
          <mxGeometry y="2520" width="240" height="30" as="geometry" />
        </mxCell>
        <mxCell id="U1xN9qSYTa0BHSk3Pk5W-141" value="sk_write_space: 송신 공간 사용 가능 콜백" style="text;strokeColor=none;fillColor=none;align=left;verticalAlign=middle;spacingLeft=4;spacingRight=4;overflow=hidden;points=[[0,0.5],[1,0.5]];portConstraint=eastwest;rotatable=0;whiteSpace=wrap;html=1;" parent="U1xN9qSYTa0BHSk3Pk5W-12" vertex="1">
          <mxGeometry y="2550" width="240" height="30" as="geometry" />
        </mxCell>
        <mxCell id="U1xN9qSYTa0BHSk3Pk5W-142" value="sk_error_report: 에러 보고 콜백(MSG_ERRQUEUE 등)" style="text;strokeColor=none;fillColor=none;align=left;verticalAlign=middle;spacingLeft=4;spacingRight=4;overflow=hidden;points=[[0,0.5],[1,0.5]];portConstraint=eastwest;rotatable=0;whiteSpace=wrap;html=1;" parent="U1xN9qSYTa0BHSk3Pk5W-12" vertex="1">
          <mxGeometry y="2580" width="240" height="30" as="geometry" />
        </mxCell>
        <mxCell id="U1xN9qSYTa0BHSk3Pk5W-143" value="sk_backlog_rcv: 백로그 처리 콜백" style="text;strokeColor=none;fillColor=none;align=left;verticalAlign=middle;spacingLeft=4;spacingRight=4;overflow=hidden;points=[[0,0.5],[1,0.5]];portConstraint=eastwest;rotatable=0;whiteSpace=wrap;html=1;" parent="U1xN9qSYTa0BHSk3Pk5W-12" vertex="1">
          <mxGeometry y="2610" width="240" height="30" as="geometry" />
        </mxCell>
        <mxCell id="U1xN9qSYTa0BHSk3Pk5W-144" value="sk_validate_xmit_skb: 선택적 검증 함수 포인터" style="text;strokeColor=none;fillColor=none;align=left;verticalAlign=middle;spacingLeft=4;spacingRight=4;overflow=hidden;points=[[0,0.5],[1,0.5]];portConstraint=eastwest;rotatable=0;whiteSpace=wrap;html=1;" parent="U1xN9qSYTa0BHSk3Pk5W-12" vertex="1">
          <mxGeometry y="2640" width="240" height="30" as="geometry" />
        </mxCell>
        <mxCell id="U1xN9qSYTa0BHSk3Pk5W-145" value="sk_destruct: 참조 카운트 0일 때 소켓 해제 콜백" style="text;strokeColor=none;fillColor=none;align=left;verticalAlign=middle;spacingLeft=4;spacingRight=4;overflow=hidden;points=[[0,0.5],[1,0.5]];portConstraint=eastwest;rotatable=0;whiteSpace=wrap;html=1;" parent="U1xN9qSYTa0BHSk3Pk5W-12" vertex="1">
          <mxGeometry y="2670" width="240" height="30" as="geometry" />
        </mxCell>
        <mxCell id="U1xN9qSYTa0BHSk3Pk5W-146" value="sk_reuseport_cb: reuseport 그룹 컨테이너" style="text;strokeColor=none;fillColor=none;align=left;verticalAlign=middle;spacingLeft=4;spacingRight=4;overflow=hidden;points=[[0,0.5],[1,0.5]];portConstraint=eastwest;rotatable=0;whiteSpace=wrap;html=1;" parent="U1xN9qSYTa0BHSk3Pk5W-12" vertex="1">
          <mxGeometry y="2700" width="240" height="30" as="geometry" />
        </mxCell>
        <mxCell id="U1xN9qSYTa0BHSk3Pk5W-147" value="sk_bpf_storage: bpf_sk_storage용 캐시 및 제어 포인터" style="text;strokeColor=none;fillColor=none;align=left;verticalAlign=middle;spacingLeft=4;spacingRight=4;overflow=hidden;points=[[0,0.5],[1,0.5]];portConstraint=eastwest;rotatable=0;whiteSpace=wrap;html=1;" parent="U1xN9qSYTa0BHSk3Pk5W-12" vertex="1">
          <mxGeometry y="2730" width="240" height="30" as="geometry" />
        </mxCell>
        <mxCell id="U1xN9qSYTa0BHSk3Pk5W-148" value="sk_rcu: RCU grace period 동안 사용" style="text;strokeColor=none;fillColor=none;align=left;verticalAlign=middle;spacingLeft=4;spacingRight=4;overflow=hidden;points=[[0,0.5],[1,0.5]];portConstraint=eastwest;rotatable=0;whiteSpace=wrap;html=1;" parent="U1xN9qSYTa0BHSk3Pk5W-12" vertex="1">
          <mxGeometry y="2760" width="240" height="30" as="geometry" />
        </mxCell>
        <mxCell id="U1xN9qSYTa0BHSk3Pk5W-149" value="sk_clockid: SO_TXTIME용 clockid" style="text;strokeColor=none;fillColor=none;align=left;verticalAlign=middle;spacingLeft=4;spacingRight=4;overflow=hidden;points=[[0,0.5],[1,0.5]];portConstraint=eastwest;rotatable=0;whiteSpace=wrap;html=1;" parent="U1xN9qSYTa0BHSk3Pk5W-12" vertex="1">
          <mxGeometry y="2790" width="240" height="30" as="geometry" />
        </mxCell>
        <mxCell id="U1xN9qSYTa0BHSk3Pk5W-150" value="sk_txtime_deadline_mode: SO_TXTIME용 deadline 모드 설정" style="text;strokeColor=none;fillColor=none;align=left;verticalAlign=middle;spacingLeft=4;spacingRight=4;overflow=hidden;points=[[0,0.5],[1,0.5]];portConstraint=eastwest;rotatable=0;whiteSpace=wrap;html=1;" parent="U1xN9qSYTa0BHSk3Pk5W-12" vertex="1">
          <mxGeometry y="2820" width="240" height="30" as="geometry" />
        </mxCell>
        <mxCell id="U1xN9qSYTa0BHSk3Pk5W-151" value="sk_txtime_report_errors: SO_TXTIME용 에러 리포트 모드 설정" style="text;strokeColor=none;fillColor=none;align=left;verticalAlign=middle;spacingLeft=4;spacingRight=4;overflow=hidden;points=[[0,0.5],[1,0.5]];portConstraint=eastwest;rotatable=0;whiteSpace=wrap;html=1;" parent="U1xN9qSYTa0BHSk3Pk5W-12" vertex="1">
          <mxGeometry y="2850" width="240" height="30" as="geometry" />
        </mxCell>
        <mxCell id="U1xN9qSYTa0BHSk3Pk5W-152" value="sk_txtime_unused: 미사용 txtime 플래그" style="text;strokeColor=none;fillColor=none;align=left;verticalAlign=middle;spacingLeft=4;spacingRight=4;overflow=hidden;points=[[0,0.5],[1,0.5]];portConstraint=eastwest;rotatable=0;whiteSpace=wrap;html=1;" parent="U1xN9qSYTa0BHSk3Pk5W-12" vertex="1">
          <mxGeometry y="2880" width="240" height="30" as="geometry" />
        </mxCell>
        <mxCell id="U1xN9qSYTa0BHSk3Pk5W-153" value="sk_scm_recv_flags: scm_recv()에서 사용하는 모든 플래그" style="text;strokeColor=none;fillColor=none;align=left;verticalAlign=middle;spacingLeft=4;spacingRight=4;overflow=hidden;points=[[0,0.5],[1,0.5]];portConstraint=eastwest;rotatable=0;whiteSpace=wrap;html=1;" parent="U1xN9qSYTa0BHSk3Pk5W-12" vertex="1">
          <mxGeometry y="2910" width="240" height="30" as="geometry" />
        </mxCell>
        <mxCell id="U1xN9qSYTa0BHSk3Pk5W-154" value="sk_scm_credentials: SO_PASSCRED로 SCM_CREDENTIALS 수신 플래그" style="text;strokeColor=none;fillColor=none;align=left;verticalAlign=middle;spacingLeft=4;spacingRight=4;overflow=hidden;points=[[0,0.5],[1,0.5]];portConstraint=eastwest;rotatable=0;whiteSpace=wrap;html=1;" parent="U1xN9qSYTa0BHSk3Pk5W-12" vertex="1">
          <mxGeometry y="2940" width="240" height="30" as="geometry" />
        </mxCell>
        <mxCell id="U1xN9qSYTa0BHSk3Pk5W-155" value="sk_scm_security: SO_PASSSEC로 SCM_SECURITY 수신 플래그" style="text;strokeColor=none;fillColor=none;align=left;verticalAlign=middle;spacingLeft=4;spacingRight=4;overflow=hidden;points=[[0,0.5],[1,0.5]];portConstraint=eastwest;rotatable=0;whiteSpace=wrap;html=1;" parent="U1xN9qSYTa0BHSk3Pk5W-12" vertex="1">
          <mxGeometry y="2970" width="240" height="30" as="geometry" />
        </mxCell>
        <mxCell id="U1xN9qSYTa0BHSk3Pk5W-156" value="sk_scm_pidfd: SO_PASSPIDFD로 SCM_PIDFD 수신 플래그" style="text;strokeColor=none;fillColor=none;align=left;verticalAlign=middle;spacingLeft=4;spacingRight=4;overflow=hidden;points=[[0,0.5],[1,0.5]];portConstraint=eastwest;rotatable=0;whiteSpace=wrap;html=1;" parent="U1xN9qSYTa0BHSk3Pk5W-12" vertex="1">
          <mxGeometry y="3000" width="240" height="30" as="geometry" />
        </mxCell>
        <mxCell id="U1xN9qSYTa0BHSk3Pk5W-157" value="sk_scm_rights: SO_PASSRIGHTS로 SCM_RIGHTS 수신 플래그" style="text;strokeColor=none;fillColor=none;align=left;verticalAlign=middle;spacingLeft=4;spacingRight=4;overflow=hidden;points=[[0,0.5],[1,0.5]];portConstraint=eastwest;rotatable=0;whiteSpace=wrap;html=1;" parent="U1xN9qSYTa0BHSk3Pk5W-12" vertex="1">
          <mxGeometry y="3030" width="240" height="30" as="geometry" />
        </mxCell>
        <mxCell id="U1xN9qSYTa0BHSk3Pk5W-158" value="sk_scm_unused: scm_recv()용 미사용 플래그" style="text;strokeColor=none;fillColor=none;align=left;verticalAlign=middle;spacingLeft=4;spacingRight=4;overflow=hidden;points=[[0,0.5],[1,0.5]];portConstraint=eastwest;rotatable=0;whiteSpace=wrap;html=1;" parent="U1xN9qSYTa0BHSk3Pk5W-12" vertex="1">
          <mxGeometry y="3060" width="240" height="30" as="geometry" />
        </mxCell>
        <mxCell id="U1xN9qSYTa0BHSk3Pk5W-159" value="ns_tracker: netns 참조 추적기" style="text;strokeColor=none;fillColor=none;align=left;verticalAlign=middle;spacingLeft=4;spacingRight=4;overflow=hidden;points=[[0,0.5],[1,0.5]];portConstraint=eastwest;rotatable=0;whiteSpace=wrap;html=1;" parent="U1xN9qSYTa0BHSk3Pk5W-12" vertex="1">
          <mxGeometry y="3090" width="240" height="30" as="geometry" />
        </mxCell>
        <mxCell id="U1xN9qSYTa0BHSk3Pk5W-161" value="sk_user_frags: 사용자가 참조 중인 페이지 xarray" style="text;strokeColor=none;fillColor=none;align=left;verticalAlign=middle;spacingLeft=4;spacingRight=4;overflow=hidden;points=[[0,0.5],[1,0.5]];portConstraint=eastwest;rotatable=0;whiteSpace=wrap;html=1;" parent="U1xN9qSYTa0BHSk3Pk5W-12" vertex="1">
          <mxGeometry y="3120" width="240" height="30" as="geometry" />
        </mxCell>
        <mxCell id="U1xN9qSYTa0BHSk3Pk5W-160" value="sk_owner: sock_lock_init_class_and_name() 호출한 실제 소유자 참조" style="text;strokeColor=none;fillColor=none;align=left;verticalAlign=middle;spacingLeft=4;spacingRight=4;overflow=hidden;points=[[0,0.5],[1,0.5]];portConstraint=eastwest;rotatable=0;whiteSpace=wrap;html=1;" parent="U1xN9qSYTa0BHSk3Pk5W-12" vertex="1">
          <mxGeometry y="3150" width="240" height="50" as="geometry" />
        </mxCell>
        <mxCell id="U1xN9qSYTa0BHSk3Pk5W-57" style="edgeStyle=orthogonalEdgeStyle;rounded=0;orthogonalLoop=1;jettySize=auto;html=1;entryX=0;entryY=0.003;entryDx=0;entryDy=0;entryPerimeter=0;" parent="WIyWlLk6GJQsqaUBKTNV-1" source="U1xN9qSYTa0BHSk3Pk5W-9" target="U1xN9qSYTa0BHSk3Pk5W-12" edge="1">
          <mxGeometry relative="1" as="geometry">
            <mxPoint x="40" y="310" as="targetPoint" />
          </mxGeometry>
        </mxCell>
      </root>
    </mxGraphModel>
  </diagram>
</mxfile>
